/* XPM */
static char *result[] = {
/* columns rows colors chars-per-pixel */
"64 64 9 1 ",
"  c black",
". c #7B4A00",
"X c #B57B08",
"o c #EFA510",
"O c #F7DE08",
"+ c #FFFF08",
"@ c #FFFF84",
"# c white",
"$ c None",
/* pixels */
"$$$$$$$$$$$$$$$$$$$$$$$$$$$$XXXXXXXX$$$$$$$$$$$$$$$$$$$$$$$$$$$$",
"$$$$$$$$$$$$$$$$$$$$$$$$$$$$XXXXXXXX$$$$$$$$$$$$$$$$$$$$$$$$$$$$",
"$$$$$$$$$$$$$$$$$$$$$$$$$$$$XXXXXXXX$$$$$$$$$$$$$$$$$$$$$$$$$$$$",
"$$$$$$$$$$$$$$$$$$$$$$$$$$$$XXXXXXXX$$$$$$$$$$$$$$$$$$$$$$$$$$$$",
"$$$$$$$$$$$$$$$$$$$$$$$$XXXXOOOOOOOOXXXX$$$$$$$$$$$$$$$$$$$$$$$$",
"$$$$$$$$$$$$$$$$$$$$$$$$XXXXOOOOOOOOXXXX$$$$$$$$$$$$$$$$$$$$$$$$",
"$$$$$$$$$$$$$$$$$$$$$$$$XXXXOOOOOOOOXXXX$$$$$$$$$$$$$$$$$$$$$$$$",
"$$$$$$$$$$$$$$$$$$$$$$$$XXXXOOOOOOOOXXXX$$$$$$$$$$$$$$$$$$$$$$$$",
"$$$$$$$$$$$$$$$$$$$$$$$$XXXXOOOOOOOOXXXX$$$$$$$$$$$$$$$$$$$$$$$$",
"$$$$$$$$$$$$$$$$$$$$$$$$XXXX++++++++XXXX$$$$$$$$$$$$$$$$$$$$$$$$",
"$$$$$$$$$$$$$$$$$$$$$$$$XXXX++++++++XXXX$$$$$$$$$$$$$$$$$$$$$$$$",
"$$$$$$$$$$$$$$$$$$$$$$$$XXXX++++++++XXXX$$$$$$$$$$$$$$$$$$$$$$$$",
"$$$$$$$$$$$$$$$$$$$$$$$$XXXX++++++++XXXX$$$$$$$$$$$$$$$$$$$$$$$$",
"$$$$$$$$$$$$$$$$$$$$XXXX####++++++++####XXXX$$$$$$$$$$$$$$$$$$$$",
"$$$$$$$$$$$$$$$$$$$$XXXX####++++++++####XXXX$$$$$$$$$$$$$$$$$$$$",
"$$$$$$$$$$$$$$$$$$$$XXXX####++++++++####XXXX$$$$$$$$$$$$$$$$$$$$",
"$$$$$$$$$$$$$$$$$$$$XXXX####++++++++####XXXX$$$$$$$$$$$$$$$$$$$$",
"$$$$$$$$$$$$XXXXXXXXOOOO@@@@++++++++@@@@OOOOXXXXXXXX$$$$$$$$$$$$",
"$$$$$$$$$$$$XXXXXXXXOOOO@@@@++++++++@@@@OOOOXXXXXXXX$$$$$$$$$$$$",
"$$$$$$$$$$$$XXXXXXXXOOOO@@@@++++++++@@@@OOOOXXXXXXXX$$$$$$$$$$$$",
"$$$$$$$$$$$$XXXXXXXXOOOO@@@@++++++++@@@@OOOOXXXXXXXX$$$$$$$$$$$$",
"....XXXXXXXX@@@@####@@@@++++++++++++++++@@@@####@@@@XXXXXXXX....",
"....XXXXXXXX@@@@####@@@@++++++++++++++++@@@@####@@@@XXXXXXXX....",
"....XXXXXXXX@@@@####@@@@++++++++++++++++@@@@####@@@@XXXXXXXX....",
"....XXXXXXXX@@@@####@@@@++++++++++++++++@@@@####@@@@XXXXXXXX....",
"....XXXXXXXX@@@@####@@@@++++++++++++++++@@@@####@@@@XXXXXXXX....",
"....OOOO@@@@++++++++OOOO    ++++++++    OOOO++++++++@@@@OOOO....",
"....OOOO@@@@++++++++OOOO    ++++++++    OOOO++++++++@@@@OOOO....",
"....OOOO@@@@++++++++OOOO    ++++++++    OOOO++++++++@@@@OOOO....",
"....OOOO@@@@++++++++OOOO    ++++++++    OOOO++++++++@@@@OOOO....",
"$$$$....XXXXOOOO++++OOOO    ++++++++    OOOO++++OOOOXXXX....$$$$",
"$$$$....XXXXOOOO++++OOOO    ++++++++    OOOO++++OOOOXXXX....$$$$",
"$$$$....XXXXOOOO++++OOOO    ++++++++    OOOO++++OOOOXXXX....$$$$",
"$$$$....XXXXOOOO++++OOOO    ++++++++    OOOO++++OOOOXXXX....$$$$",
"$$$$$$$$....XXXX++++OOOO....++++++++....OOOO++++XXXX....$$$$$$$$",
"$$$$$$$$....XXXX++++OOOO....++++++++....OOOO++++XXXX....$$$$$$$$",
"$$$$$$$$....XXXX++++OOOO....++++++++....OOOO++++XXXX....$$$$$$$$",
"$$$$$$$$....XXXX++++OOOO....++++++++....OOOO++++XXXX....$$$$$$$$",
"$$$$$$$$$$$$....OOOO++++oooo++++++++oooo++++OOOO....$$$$$$$$$$$$",
"$$$$$$$$$$$$....OOOO++++oooo++++++++oooo++++OOOO....$$$$$$$$$$$$",
"$$$$$$$$$$$$....OOOO++++oooo++++++++oooo++++OOOO....$$$$$$$$$$$$",
"$$$$$$$$$$$$....OOOO++++oooo++++++++oooo++++OOOO....$$$$$$$$$$$$",
"$$$$$$$$$$$$....OOOO++++oooo++++++++oooo++++OOOO....$$$$$$$$$$$$",
"$$$$$$$$$$$$....OOOO++++++++++++++++++++++++OOOO....$$$$$$$$$$$$",
"$$$$$$$$$$$$....OOOO++++++++++++++++++++++++OOOO....$$$$$$$$$$$$",
"$$$$$$$$$$$$....OOOO++++++++++++++++++++++++OOOO....$$$$$$$$$$$$",
"$$$$$$$$$$$$....OOOO++++++++++++++++++++++++OOOO....$$$$$$$$$$$$",
"$$$$$$$$....XXXX++++++++OOOOOOOOOOOOOOOO++++++++XXXX....$$$$$$$$",
"$$$$$$$$....XXXX++++++++OOOOOOOOOOOOOOOO++++++++XXXX....$$$$$$$$",
"$$$$$$$$....XXXX++++++++OOOOOOOOOOOOOOOO++++++++XXXX....$$$$$$$$",
"$$$$$$$$....XXXX++++++++OOOOOOOOOOOOOOOO++++++++XXXX....$$$$$$$$",
"$$$$$$$$....oooo++++OOOOoooo........ooooOOOO++++oooo....$$$$$$$$",
"$$$$$$$$....oooo++++OOOOoooo........ooooOOOO++++oooo....$$$$$$$$",
"$$$$$$$$....oooo++++OOOOoooo........ooooOOOO++++oooo....$$$$$$$$",
"$$$$$$$$....oooo++++OOOOoooo........ooooOOOO++++oooo....$$$$$$$$",
"$$$$$$$$....OOOOooooXXXX....$$$$$$$$....XXXXooooOOOO....$$$$$$$$",
"$$$$$$$$....OOOOooooXXXX....$$$$$$$$....XXXXooooOOOO....$$$$$$$$",
"$$$$$$$$....OOOOooooXXXX....$$$$$$$$....XXXXooooOOOO....$$$$$$$$",
"$$$$$$$$....OOOOooooXXXX....$$$$$$$$....XXXXooooOOOO....$$$$$$$$",
"$$$$$$$$....OOOOooooXXXX....$$$$$$$$....XXXXooooOOOO....$$$$$$$$",
"$$$$$$$$................$$$$$$$$$$$$$$$$................$$$$$$$$",
"$$$$$$$$................$$$$$$$$$$$$$$$$................$$$$$$$$",
"$$$$$$$$................$$$$$$$$$$$$$$$$................$$$$$$$$",
"$$$$$$$$................$$$$$$$$$$$$$$$$................$$$$$$$$"
};
