/* XPM */
static char *result[] = {
/* columns rows colors chars-per-pixel */
"64 64 81 1 ",
"  c black",
". c #010000",
"X c #010101",
"o c #000002",
"O c #010002",
"+ c #030002",
"@ c #000600",
"# c #000700",
"$ c #060606",
"% c #000800",
"& c #000900",
"* c #000D00",
"= c #000E00",
"- c #000F00",
"; c #090909",
": c #001000",
"> c #066D00",
", c #046E00",
"< c #056F00",
"1 c #076E01",
"2 c #086E01",
"3 c #086D03",
"4 c #0C6D06",
"5 c #0F6608",
"6 c #0F650A",
"7 c #10620D",
"8 c #037000",
"9 c #047000",
"0 c #057000",
"q c #047100",
"w c #067001",
"e c #047300",
"r c #017700",
"t c #037700",
"y c #067500",
"u c #047600",
"i c #017800",
"p c #007900",
"a c #007A00",
"s c #017A00",
"d c #007B00",
"f c #32CD27",
"g c #41FF35",
"h c #42FF35",
"j c #44FF37",
"k c #45FF37",
"l c #4BF43F",
"z c #4CF43F",
"x c #4CF63E",
"c c #44FF39",
"v c #45FF39",
"b c #46FF39",
"n c #45FF3A",
"m c #46FE3A",
"M c #48FE3A",
"N c #49F93E",
"B c #4AF83E",
"V c #4AF83F",
"C c #48FD3C",
"Z c #49FD3C",
"A c #49FC3E",
"S c #5BDE52",
"D c #4FEF43",
"F c #57E34E",
"G c #5AE64F",
"H c #55E94B",
"J c #54EC49",
"K c #4CF341",
"L c #4AF640",
"P c #4CF540",
"I c #4DF540",
"U c #4DF641",
"Y c #4DF442",
"T c #4CF542",
"R c #4EF543",
"E c #4DF643",
"W c #4DF444",
"Q c #4EF545",
"! c #4DF943",
"~ c #4FF843",
"^ c None",
/* pixels */
"                                                                ",
"                                                                ",
"  DggggggggggggggggggggggggggggggggggggggggggggggggggggggggggH  ",
"  JmmmmmmmmmmmmmmmmmmmmmmmmmmmmmmmmmmmmmmmmmmmmmmmmmmmmmmmmmmG  ",
"  FKzKKllKlKMmmmmmmmmmIlKllKlKKllllKKKKllKlKKzKKllKlKKzKKllKlS  ",
"  6<<<<<<<<<mmmmmmmmmm<<<<<<<<<<<<<<<<<<<<<<<<<<<<<<<<<<<<<<<7  ",
"  5qqqq<<<<<mmmmmmmmmm<<w9qq99<<<<<<<<<<<<<<<<<99<<<0qqqq99<<7  ",
"  Jmmmme<<<<mmmmmmmmmm<<1mmmmf<<<<<<<<<<<<<<<<<mm1<<mmmmmmm<<7  ",
"  Jmmmme<<<<mmmmmmmmmm<<1mmmmf<<<<<<<<<<<<<<<<<mm1<<mmmmmmb<<7  ",
"  Jmmmme<<<<mmmmmmmmmm<<1mmmmf<<<<<<<<<<<<<<<<<<qmCCqqmmmmb<<7  ",
"  Jmmmme<<<<mmmmmmmmmm<<1mmmmf<<<<<<<<<<<<<<<<<<<vmm<<mmmmb<<7  ",
"  Jmmmme<<<<mmmmmmmmmm<<1mmmmf<<<<<<<<<<<<<<<<<BByuuNVmmmmb<<7  ",
"  Jmmmme<<<<mmmmmmmmmm<<1mmmmf<<<<<<<<<<<<<<<<<mm1<<mmmmmmb<<7  ",
"  Jmmmme<<<<mmmmmmmmmm<<1mmmmf<<<<<<<<<<<<<<<<<mm1<<mmmmmmb<<7  ",
"  Jmmmme<<<<mmmmmmmmmm<<1mmmmf<<<<<<<<<<<<<<<<<<<vmm<<mmmmb<<7  ",
"  Jmmmme<<<<mmmmmmmmmm<<1mmmmf<<<<<<<<<<<<<<<<<<<vmm<<mmmmb<<7  ",
"  Jmmmme<<<<mmmmmmmmmm<<1mmmmf<<<<<<<<<<<<<<<<<mm1<<mmmmmmb<<7  ",
"  Jmmmme<<<<mmmmmmmmmm<<1mmmmf<<<<<<<<<<<<<<<<<mm1<<mnmmmmb<<7  ",
"  Jmmmme<<<<mmmmmmmmmm<<1mmmmf<<<<<<<<<<<<<<<<<<<vmm<<mmmmb<<7  ",
"  Jmmmme<<<<mmmmmmmmmm<<1mmmmf<<<<<<<<<<<<<<<<<<<vmm<<mmmmb<<7  ",
"  Jmmmme<<<<mmmmmmmmmm<<1mmmmf<<<<<<<<<<<<<<<<<sdPYTddmmmmb<<7  ",
"  Jmmmme<<<<mmmmmmmmmm<<1mmmmf<<<<<<<<<<<<<<<<<mm1<<mmmmmmb<<7  ",
"  Jmmmme<<<<mmmmmmmmmm<<1mmmmf<<<<<<<<<<<<<<<<<CC<qqCCmmmmb<<7  ",
"  Jmmmme<<<<mmmmmmmmmm<<1mmmmf<<<<<<<<<<<<<<<<<<<vmm<<mmmmb<<7  ",
"  Jmmmme<<<<mmmmmmmmmm<<1mmmmf<<<<<<<<<<<<<<<<<q9vMC09mmmmb<<7  ",
"  Jmmmme<<<<mmmmmmmmmm<<1mmmmf<<<<<<<<<<<<<<<<<mm1<0mmmmmmb<<7  ",
"  Jmmmme<<<<mmmmmmmmmm<<1mmmmf<<<<<<<<<<<<<<<<<mm1<<mmmmmmb<<7  ",
"  =-:-:&%#%%=:::::-:-:%%#::-:*#%%%%####%%#%%#%#::%#%--:-:::#%@  ",
"                                                                ",
"                                                             X  ",
"^^$                                                          ;^^",
"^^$    OOOOOO.O.OOOOOOOOOOO O  OOOO    OOo+OO. OOOOOO . .    ;^^",
"^^^^^  !mmmm<<<<<Cmmmmmmmmv<<<<<<<<<<<<<<<mm3<<mmmvm9<<<,  ^^^^^",
"^^^^^  ~mmmm<<<<<Cmmmmmmmmm<<<<<<<<<<<<<<<mm1<<mmmmm<<<<>  ^^^^^",
"^^^^^  ~mmmm<<<<<Cmmmmmmmmm<<<<<<<<<<<<njc13hccmmmmm<<<<>  ^^^^^",
"^^^^^  ~mmmm<<<<<Cmmmmmmmmm<<<<<<<<<<<<CmMq<vmmmmmmm<<<<>  ^^^^^",
"^^^^^  ~mmmm<<<<<Cmmmmmmmmm<<<<<<<<<<<<PLTdsLTWmmmmm<<<<>  ^^^^^",
"^^^^^  ~mmmm<<<<<Cmmmmmmmmm<<<<<<<<<<<<<<<mm1<<mmmmm<<<<>  ^^^^^",
"^^^^^  ~mmmm<<<<<Cmmmmmmmmm<<<<<<<<<<<<<<<mm1<<mmmmm<<<<>  ^^^^^",
"^^^^^  ~mmmm<<<<<Cmmmmmmmmm<<<<<<<<<<<<MmMq<vmmmmmmm<<<<>  ^^^^^",
"^^^^^  ~mmmm<<<<<Cmmmmmmmmm<<<<<<<<<<<<CmMq<vmmmmmmm<<<<>  ^^^^^",
"^^^^^  ~mmmm<<<<<Cmmmmmmmmm<<<<<<<<<<<<<98CM199mmmmm<<<<>  ^^^^^",
"^^^^^  ~mmmm<<<<<Cmmmmmmmmm<<<<<<<<<<<<<<<mm1<<mmmmm<<<<>  ^^^^^",
"^^^^^  ~mmmm<<<<<Cmmmmmmmmm<<<<<<<<<<<<QREapURRbmmmm<<<<>  ^^^^^",
"^^^^^  ~mmmm<<<<<Cmmmmmmmmm<<<<<<<<<<<<Cmm0<vmmmmmmm<<<<>  ^^^^^",
"^^^^^  ~mmmm<<<<<Cmmmmmmmmm<<<<<<<<<<<<mvv<1hvvmmmmm<<<<>  ^^^^^",
"^^^^^  ~mmmm<<<<<Cmmmmmmmmm<<<<<<<<<<<<<<<mm1<<mmmmm<<<<>  ^^^^^",
"^^^^^  ~mmmm<<<<<Cmmmmmmmmm<<<<<<<<<<<<<<<mm3<<mmmmm<<<<>  ^^^^^",
"^^^^^  ~mmmm<<<<<Cmmmmmmmmm<<<<<<<<<<<<CmMq<vmmmmmmm<<<<>  ^^^^^",
"^^^^^  ~mmmm<<<<<Cmmmmmmmmm<<<<<<<<<<<<Cnm<<cmmmmmmm<<<<>  ^^^^^",
"^^^^^  ~mmmm<<<<<Cmmmmmmmmm<<<<<<<<<<<<<<<mm1<<mmmmm<<<<>  ^^^^^",
"^^^^^  ~mmmm<<<<<Cmmmmmmmmm<<<<<<<<<<<<<<<mm1<<mmmmm<<<<>  ^^^^^",
"^^^^^  ~mmmm<<<<<Cmmmmmmmmm<<<<<<<<<<<<rpiLLtiimmmmm<<<<>  ^^^^^",
"^^^^^  ~mmmm<<<<<Cmmmmmmmmm<<<<<<<<<<<<CmMq<vmmmmmmm<<<<>  ^^^^^",
"^^^^^  ~mmmm<<<<<Cmmmmmmmmm<<<<<<<<<<<<ACZqqmCCmmmmm<<<<>  ^^^^^",
"^^^^^  ~mmmm<<<<<Cmmmmmmmmm<<<<<<<<<<<<<<<mm1<<mmmmm<<<<>  ^^^^^",
"^^^^^  ~mmmm<<<<<Cmmmmmmmmm<<<<<<<<<<<<<<9Cm1<<mmmmm<<<<>  ^^^^^",
"^^^^^  ~mmmm<<<<<Cmmmmmmmmm<<<<<<<<<<<<Cmm9<vmmnmmmm<<<<>  ^^^^^",
"^^^^^  ~mmmm<<<<<Cmmmmmmmmm<<<<<<<<<<<<CmMq<vmmmmmmm<<<<>  ^^^^^",
"^^^^^  ~mmmm<<<<<Cmmmmmmmmm<<<<<<<<<<<<ppixLuirmmmmm<<<<>  ^^^^^",
"^^^^^  ~mmmm<<<<<Cmmmmmmmmm<<<<<<<<<<<<<<<mm1<<mmmmm<<<<>  ^^^^^",
"^^^^^  ~mmmm<<<<<Cmmmmmmmmm<<<<<<<<<<<<332kj433mmmmm<<<<>  ^^^^^",
"^^^^^  ~mmmm<<<<<Cmmmmmmmmm<<<<<<<<<<<<CmMq<vmmmmmmm<<<<>  ^^^^^",
"^^^^^  ~mmmm<<<<<Cmmmmmmmmm<<<<<<<<<<<<CmMq<vmmmmmmm<<<<>  ^^^^^"
};
