/* XPM */
static char *result[] = {
/* columns rows colors chars-per-pixel */
"64 64 7 1 ",
"  c black",
". c red",
"X c #A04000",
"o c yellow",
"O c #002080",
"+ c #E0A080",
"@ c None",
/* pixels */
"@@@@@@@@@@@@@@@@............................@@@@@@@@@@@@@@@@@@@@",
"@@@@@@@@@@@@@@@@............................@@@@@@@@@@@@@@@@@@@@",
"@@@@@@@@@@@@@@@@............................@@@@@@@@@@@@@@@@@@@@",
"@@@@@@@@@@@@@@@@............................@@@@@@@@@@@@@@@@@@@@",
"@@@@@@@@@@@@........................................@@@@@@@@@@@@",
"@@@@@@@@@@@@........................................@@@@@@@@@@@@",
"@@@@@@@@@@@@........................................@@@@@@@@@@@@",
"@@@@@@@@@@@@........................................@@@@@@@@@@@@",
"@@@@@@@@@@@@                ++++++++    ++++@@@@@@@@@@@@@@@@@@@@",
"@@@@@@@@@@@@                ++++++++    ++++@@@@@@@@@@@@@@@@@@@@",
"@@@@@@@@@@@@                ++++++++    ++++@@@@@@@@@@@@@@@@@@@@",
"@@@@@@@@@@@@                ++++++++    ++++@@@@@@@@@@@@@@@@@@@@",
"@@@@@@@@        ++++    ++++++++++++    ++++++++++++@@@@@@@@@@@@",
"@@@@@@@@        ++++    ++++++++++++    ++++++++++++@@@@@@@@@@@@",
"@@@@@@@@        ++++    ++++++++++++    ++++++++++++@@@@@@@@@@@@",
"@@@@@@@@        ++++    ++++++++++++    ++++++++++++@@@@@@@@@@@@",
"@@@@@@@@        ++++        ++++++++++++    ++++++++@@@@@@@@@@@@",
"@@@@@@@@        ++++        ++++++++++++    ++++++++@@@@@@@@@@@@",
"@@@@@@@@        ++++        ++++++++++++    ++++++++@@@@@@@@@@@@",
"@@@@@@@@        ++++        ++++++++++++    ++++++++@@@@@@@@@@@@",
"@@@@@@@@            ++++++++++++++++                @@@@@@@@@@@@",
"@@@@@@@@            ++++++++++++++++                @@@@@@@@@@@@",
"@@@@@@@@            ++++++++++++++++                @@@@@@@@@@@@",
"@@@@@@@@            ++++++++++++++++                @@@@@@@@@@@@",
"@@@@@@@@@@@@@@@@++++++++++++++++++++++++@@@@@@@@@@@@@@@@@@@@@@@@",
"@@@@@@@@@@@@@@@@++++++++++++++++++++++++@@@@@@@@@@@@@@@@@@@@@@@@",
"@@@@@@@@@@@@@@@@++++++++++++++++++++++++@@@@@@@@@@@@@@@@@@@@@@@@",
"@@@@@@@@@@@@@@@@++++++++++++++++++++++++@@@@@@@@@@@@@@@@@@@@@@@@",
"@@@@@@@@@@@@............OOOO............@@@@@@@@@@@@@@@@@@@@@@@@",
"@@@@@@@@@@@@............OOOO............@@@@@@@@@@@@@@@@@@@@@@@@",
"@@@@@@@@@@@@............OOOO............@@@@@@@@@@@@@@@@@@@@@@@@",
"@@@@@@@@@@@@............OOOO............@@@@@@@@@@@@@@@@@@@@@@@@",
"@@@@@@@@................OOOO........OOOO............@@@@@@@@@@@@",
"@@@@@@@@................OOOO........OOOO............@@@@@@@@@@@@",
"@@@@@@@@................OOOO........OOOO............@@@@@@@@@@@@",
"@@@@@@@@................OOOO........OOOO............@@@@@@@@@@@@",
"@@@@....................OOOOOOOOOOOOOOOO................@@@@@@@@",
"@@@@....................OOOOOOOOOOOOOOOO................@@@@@@@@",
"@@@@....................OOOOOOOOOOOOOOOO................@@@@@@@@",
"@@@@....................OOOOOOOOOOOOOOOO................@@@@@@@@",
"@@@@++++++++++++....OOOOooooOOOOOOOOooooOOOO++++++++++++@@@@@@@@",
"@@@@++++++++++++....OOOOooooOOOOOOOOooooOOOO++++++++++++@@@@@@@@",
"@@@@++++++++++++....OOOOooooOOOOOOOOooooOOOO++++++++++++@@@@@@@@",
"@@@@++++++++++++....OOOOooooOOOOOOOOooooOOOO++++++++++++@@@@@@@@",
"@@@@++++++++++++++++OOOOOOOOOOOOOOOOOOOOOOOO++++++++++++@@@@@@@@",
"@@@@++++++++++++++++OOOOOOOOOOOOOOOOOOOOOOOO++++++++++++@@@@@@@@",
"@@@@++++++++++++++++OOOOOOOOOOOOOOOOOOOOOOOO++++++++++++@@@@@@@@",
"@@@@++++++++++++++++OOOOOOOOOOOOOOOOOOOOOOOO++++++++++++@@@@@@@@",
"@@@@++++++++++++OOOOOOOOOOOOOOOOOOOOOOOOOOOOOOOO++++++++@@@@@@@@",
"@@@@++++++++++++OOOOOOOOOOOOOOOOOOOOOOOOOOOOOOOO++++++++@@@@@@@@",
"@@@@++++++++++++OOOOOOOOOOOOOOOOOOOOOOOOOOOOOOOO++++++++@@@@@@@@",
"@@@@++++++++++++OOOOOOOOOOOOOOOOOOOOOOOOOOOOOOOO++++++++@@@@@@@@",
"@@@@@@@@@@@@OOOOOOOOOOOOOOOO@@@@OOOOOOOOOOOOOOOO@@@@@@@@@@@@@@@@",
"@@@@@@@@@@@@OOOOOOOOOOOOOOOO@@@@OOOOOOOOOOOOOOOO@@@@@@@@@@@@@@@@",
"@@@@@@@@@@@@OOOOOOOOOOOOOOOO@@@@OOOOOOOOOOOOOOOO@@@@@@@@@@@@@@@@",
"@@@@@@@@@@@@OOOOOOOOOOOOOOOO@@@@OOOOOOOOOOOOOOOO@@@@@@@@@@@@@@@@",
"@@@@@@@@XXXXXXXXXXXXXXXX@@@@@@@@@@@@XXXXXXXXXXXXXXXX@@@@@@@@@@@@",
"@@@@@@@@XXXXXXXXXXXXXXXX@@@@@@@@@@@@XXXXXXXXXXXXXXXX@@@@@@@@@@@@",
"@@@@@@@@XXXXXXXXXXXXXXXX@@@@@@@@@@@@XXXXXXXXXXXXXXXX@@@@@@@@@@@@",
"@@@@@@@@XXXXXXXXXXXXXXXX@@@@@@@@@@@@XXXXXXXXXXXXXXXX@@@@@@@@@@@@",
"@@@@XXXXXXXXXXXXXXXXXXXX@@@@@@@@@@@@XXXXXXXXXXXXXXXXXXXX@@@@@@@@",
"@@@@XXXXXXXXXXXXXXXXXXXX@@@@@@@@@@@@XXXXXXXXXXXXXXXXXXXX@@@@@@@@",
"@@@@XXXXXXXXXXXXXXXXXXXX@@@@@@@@@@@@XXXXXXXXXXXXXXXXXXXX@@@@@@@@",
"@@@@XXXXXXXXXXXXXXXXXXXX@@@@@@@@@@@@XXXXXXXXXXXXXXXXXXXX@@@@@@@@"
};
