/* XPM */
static char *c501bf26edcc45f5ff2234da2a5a77641k2t7Z7xcx9KArow[] = {
/* columns rows colors chars-per-pixel */
"64 64 205 2 ",
"   c None",
".  c #17771E",
"X  c #1A5F35",
"o  c #205E39",
"O  c #156D2B",
"+  c #176D29",
"@  c #157426",
"#  c #1B7C25",
"$  c #1D7B2C",
"%  c #167429",
"&  c #166B35",
"*  c #1A6A35",
"=  c #19643D",
"-  c #146C39",
";  c #1A693A",
":  c #186537",
">  c #1C7A33",
",  c #197132",
"<  c #37642A",
"1  c #227C2C",
"2  c #267C25",
"3  c #217D32",
"4  c #247F38",
"5  c #3B7C36",
"6  c #26672A",
"7  c #6B5525",
"8  c #6B5629",
"9  c #6A582C",
"0  c #705721",
"q  c #6B5933",
"w  c #715C35",
"e  c #5D632C",
"r  c #75652E",
"t  c #79672C",
"y  c #6B693A",
"u  c #746634",
"i  c #7A6634",
"p  c #756935",
"a  c #7A6935",
"s  c #71623B",
"d  c #796A3A",
"f  c #7F703A",
"g  c #2C5E40",
"h  c #1B6641",
"j  c #176843",
"k  c #306C41",
"l  c #38744D",
"z  c #376B57",
"x  c #436854",
"c  c #746747",
"v  c #737C40",
"b  c #6C6446",
"n  c #567C65",
"m  c #836C37",
"M  c #84713B",
"N  c #8A733C",
"B  c #877536",
"V  c #836C41",
"C  c #897546",
"Z  c #937B48",
"A  c #1D8B16",
"S  c #1E861C",
"D  c #1D8A1B",
"F  c #23861E",
"G  c #22881B",
"H  c #258718",
"J  c #1D8623",
"K  c #148B23",
"L  c #1C8923",
"P  c #1D842B",
"I  c #158A2C",
"U  c #1C8A29",
"Y  c #178529",
"T  c #1A922D",
"R  c #1E8C31",
"E  c #178E30",
"W  c #1E9134",
"Q  c #228524",
"!  c #218822",
"~  c #23852B",
"^  c #278432",
"/  c #338230",
"(  c #229232",
")  c #1BA43D",
"_  c #26A23C",
"`  c #3DD62C",
"'  c #3FD929",
"]  c #3CD728",
"[  c #3CCE3D",
"{  c #39CF36",
"}  c #3DD634",
"|  c #3DD33C",
" . c #35D039",
".. c #45D51F",
"X. c #45CD2D",
"o. c #44D525",
"O. c #44D42C",
"+. c #41DC2E",
"@. c #4ADB2A",
"#. c #44CF34",
"$. c #4CC23C",
"%. c #4ACF37",
"&. c #44D333",
"*. c #43DB32",
"=. c #44D23B",
"-. c #49D136",
";. c #51D036",
":. c #46E534",
">. c #51EC3B",
",. c #54E93C",
"<. c #55FC36",
"1. c #53F53D",
"2. c #55FB3B",
"3. c #59FA3B",
"4. c #54F734",
"5. c #249945",
"6. c #1CA446",
"7. c #28AB4B",
"8. c #2CB34D",
"9. c #37AE50",
"0. c #2CBE5D",
"q. c #2FBC57",
"w. c #33B455",
"e. c #32BD53",
"r. c #34BC5D",
"t. c #3CBA5A",
"y. c #38B35B",
"u. c #32AB4D",
"i. c #2DBE64",
"p. c #2EBD69",
"a. c #26BD62",
"s. c #32BB64",
"d. c #31BD6A",
"f. c #3BB965",
"g. c #66A05E",
"h. c #68B75C",
"j. c #6E9D78",
"k. c #61A260",
"l. c #7DBC71",
"z. c #3CCE45",
"x. c #3DCD4C",
"c. c #34C44B",
"v. c #3AD147",
"b. c #2CC354",
"n. c #2CC25C",
"m. c #33C352",
"M. c #33C25B",
"N. c #30C952",
"B. c #25C363",
"V. c #2BC163",
"C. c #26C46B",
"Z. c #33C061",
"A. c #45C943",
"S. c #43D141",
"D. c #5AC64A",
"F. c #69C858",
"G. c #51EC42",
"H. c #56F342",
"J. c #54F942",
"K. c #5AFA42",
"L. c #5AF647",
"P. c #73CC73",
"I. c #94803F",
"U. c #9B8349",
"Y. c #9D8852",
"T. c #AB8D4E",
"R. c #A48A4D",
"E. c #AC904F",
"W. c #A48D53",
"Q. c #AA8E53",
"!. c #AB9154",
"~. c #AC925A",
"^. c #A79056",
"/. c #898E77",
"(. c #7CAA8B",
"). c #A49D93",
"_. c #87AD82",
"`. c #ACA68A",
"'. c #C7BE9D",
"]. c #9FCEAE",
"[. c #A8CAB5",
"{. c #C6C0AE",
"}. c #D5CFBF",
"|. c #DCD2B4",
" X c #CBEBBC",
".X c #E6DFCD",
"XX c #E5DFD1",
"oX c #C8E2CD",
"OX c #CBF5C1",
"+X c #E5E1CE",
"@X c #E0FEDB",
"#X c #D8FFE3",
"$X c #E5E7E7",
"%X c gray92",
"&X c #E9FFE8",
"*X c #FBFBEC",
"=X c #F4F4F4",
"-X c #F5FFF4",
";X c #FEFFF5",
":X c #F5FFFE",
">X c #FFFBFF",
",X c white",
"<X c #FEFEFF",
"1X c #FEFEFD",
"2X c #FEFEFE",
/* pixels */
"                                                                                                                                ",
"                                                                                                                                ",
"                                                                                                                                ",
"                                                                                                                                ",
"                                                                                                                                ",
"                                                                                                                                ",
"                                                  2X2X2X2X2X2X2X2X2X2X2X2X2X2X2X                                                ",
"                                              2X>X2X2X2XOXA.&X$.$.$.$.$.$.$.>X2X2X2X=X                                          ",
"                                            2X:Xh.D.&.-.#.O.;.L.O.O.O.O.&.&.&.X.l.>X1X>X                                        ",
"                                          2X;XF.O.O.&.*.1.1.-.1.1.L.1.3.&.<.} O.O.` 2X2X2X                                      ",
"                                      =X1X:XP.=.&.&.&.&.<.J.<.J.2.2.<.+.G.4.2.>.&.O.=.] 2X                                      ",
"                                    2X2X>X@X` &.O.O.' >.<.+.<.J.<.<.J.2.` 2.G.>.O.O.&.&.2X2X                                    ",
"                                  1X2X#XM.x.o.O.O.O.K.*.<.2.2.J.J.<.<.J.<.2.2.*.O.&.} -.-X2X2X                                  ",
"                              1X2X1X#Xb.d.} 0.=.&.&.K.<.L.3.<.L.1.J.2.2.2.L.*.<.&.&.&.b.=.&X2X2X                                ",
"                              >X-X XU V.d.n.&.=.&.O.L.,.<.<.K.L.2.H.` 3.K.:.K.*.O.&.O.' ..b.b.2X2X                              ",
"                          2X2X2XF D r.i.B.=.*.O.&.=.2.K.,.1.L.3.` 2.2.L.3.J.L.J.&.&.&.o.O.0.V.-X2X2X                            ",
"                          2X1X2 D ~ U K d.| o.o.m.O.O.@.*.} 3.4.2.<.] <.&.2.1.O.&.' O.&.V.s.i.s._.2X=X                          ",
"                        2X2X2 + A w.M.f.r.i.n.m.O.O.e.#.<.J.] <.<.2.&.o.K.:.>.O.&.O.&.&.0.b.i.V._ 2X2X                          ",
"                        2X2X~ S ( T E V.V.V.&.O.m.0.&.{ O.+.G.&.` <.&.&.=.o.>.&.&.O.&.} e.e.V.s.7.k.2X                          ",
"                        2X; ^ , U 8.V.I M.i.n.S.} O.X.N.| O.O.O.q.=.O.&.O.O.&.O.[ &.b.b.n.i.i.V.( Q 2X2X                        ",
"                        1X: ~ D J D d.0.0.n.i.&.&.&.M.z.A.=.&.S.o.' n.&.` N. .&.| =.S.O.] n.n.K ) L 2X2X                        ",
"                        1XX P S # R 5.n.8.0.p.x.=.n.} z.z.=.| [ z.c.o.&.O.[ N.A.z.o.x.d.n.Z.n.K H D / 2X                        ",
"                        2X2X1 1 # ( Q s.0.i.i.i.| M.c.b.| v.z.i.O.s.V.m.=.p.i.| p.V.i.B.i.8.V.L D J / 2X                        ",
"                        2X2X1 J L A @ r.p.y.i.V.V.x.=.n.M.z.s.r.v.d.m.V.n.i.a.w.s.V.i.n.M.e.w.D D J 5 :X                        ",
"                        2X2X; @ G % U V.Z.M.V.n.Z.Z.n.V.V.0.n.n.n.i.V.V.i.V.r.n.V.M.C.B.r.n.J J D 4 5 2X                        ",
"                          2Xo * G J I L n.r.V.n.V.V.r.V.V.i.p.n.i.s.n.i.n.d.p.B.V.V.J U $ P P L $ ! 5 2X                        ",
"                          2X2X& Q ~ L M.t.f.B.U V.p.i.Z.V.d.V.y.e.i.n.s.i.6.C.R 9.0.r.J n.r.J F Q > 2X2X                        ",
"                          2X>X- ; G L D L s.a.M.d.~ n.p.V.V.b.F Q r.Z.P s.7.8.E R U K L G A D ! J * 2X=X                        ",
"                          2X2X= & @ . + L s.M.P S n.t.n.8.y.Y F Q J s.L H 5.u.D U U F G D J ~ J > g.2X                          ",
"                            2X2X].* * F F J F J J r.t.7.S S a.S Q U s.U Q A G L Q S S A D O D ; j 2X2X                          ",
"                              2X[.h ; J D L K G G P s.F D H L Q J Q G F ~ A L J L D ~ ^ O Q O = (.2X2X                          ",
"                              2X2XoX* . @ D J Q D D H J ~ S D D A J D F S F D + A , O * ; ; ; * :X2X                            ",
"                                2XoX& ; @ J > Q 2 Q D # S H # Q Q D G $ D $ Q D h . Q ; ; ; j.& 2X2X                            ",
"                                2X2X2X; > 1 h F L Q P $ D S # Q ! $ Q # @ S # % h ; ; ; h ; 2Xn :X$X                            ",
"                                  =X2Xl z - h 1 P j 1 D # Q Q * % % J ; 4 . J ; h ; ; l x 2X2X2X2X                              ",
"                                    2X:X1X1Xk 3 ; < Q > J Q 1 * J ! * * ; ; 6 N e * = 2X2X2X2X                                  ",
"                                        2X2X2Xg 2Xt m : * Q ; * 1 L 6 ; ; ; < C w c 2X2X                                        ",
"                                            2X2Xb a u r q i v - y B 7 Q.a p /.2X2X2X:X=X                                        ",
"                                            2X2Xd *X>X2Xu d 9 0 Q.Q.i p 1X1X2X2X                                                ",
"                                              2X2X2X2X2X2Xa p r !.i 7 ;X2X2X                                                    ",
"                                                      =X2Xa p T.Q.T.^.1X2X                                                      ",
"                                                      2X2Xa T.T.~.T.i ;X2X                                                      ",
"                                                      2X+XT.r Q.B T.r :X2X                                                      ",
"                                                      2X+XN N Q.7 !.!.;X2X                                                      ",
"                                                      2X.Xu T.R.m R.f 1X2X                                                      ",
"                                                      2X:Xw U.W.i T.r 1X2X                                                      ",
"                                                      1X.XW.8 f q Q.u 2X2X                                                      ",
"                                                    =X>X|.M T.W.8 Q.r >X%X                                                      ",
"                                              =X2X2X2X2XV s T.Q.8 8 7 2X2X                                                      ",
"                                            2X2X2X2X2X2XZ u W.Q.Q.8 T.1X2X2X                                                    ",
"                                          2X2X1Xp p b f Q.R.8 T.a Q.T.M ;X1X2X                                                  ",
"                                          2Xy ~.~.a 7 8 Y.W.r R.a Q.i ~.N `.2X                                                  ",
"                                          2X;X1X;XC p U.f W.7 ^.7 d W.C !.`.2X2X                                                ",
"                                            2X2X2X2X2XXX=XN u E.:X2X}.B !.N ).2X                                                ",
"                                                  $X2X2X2X'.!.m I.1X2X2X{.2X2X2X                                                ",
"                                                        2X2X'.r U.2X2X2X2X2X=X                                                  ",
"                                                          2X2X2X1X1X2X                                                          ",
"                                                              2X1X1X                                                            ",
"                                                                                                                                ",
"                                                                                                                                ",
"                                                                                                                                ",
"                                                                                                                                ",
"                                                                                                                                ",
"                                                                                                                                "
};
